<svg xmlns="http://www.w3.org/2000/svg" xmlns:xlink="http://www.w3.org/1999/xlink" zoomAndPan="magnify" preserveAspectRatio="xMidYMid meet" version="1.0" viewBox="136.65 123.74 102 127.5"><defs><clipPath id="1dff301c4f"><path d="M 136.648438 241 L 139 241 L 139 247 L 136.648438 247 Z M 136.648438 241 " clip-rule="nonzero"/></clipPath><clipPath id="d620bb4884"><path d="M 136.648438 123.738281 L 238.648438 123.738281 L 238.648438 217 L 136.648438 217 Z M 136.648438 123.738281 " clip-rule="nonzero"/></clipPath><clipPath id="1659a24cb6"><path d="M 237 241 L 238.648438 241 L 238.648438 247 L 237 247 Z M 237 241 " clip-rule="nonzero"/></clipPath><clipPath id="f21e78f4fa"><path d="M 221 123.738281 L 238.648438 123.738281 L 238.648438 143 L 221 143 Z M 221 123.738281 " clip-rule="nonzero"/></clipPath><clipPath id="26bb523a8e"><path d="M 138 246 L 238 246 L 238 251.238281 L 138 251.238281 Z M 138 246 " clip-rule="nonzero"/></clipPath><clipPath id="3681713e43"><path d="M 136.648438 216 L 238.648438 216 L 238.648438 251 L 136.648438 251 Z M 136.648438 216 " clip-rule="nonzero"/></clipPath></defs><g clip-path="url(#1dff301c4f)"><path fill="#e6e6e6" d="M 136.648438 242.1875 C 136.648438 243.835938 137.160156 245.378906 138.035156 246.640625 C 137.144531 245.203125 136.648438 243.527344 136.648438 241.71875 Z M 136.648438 242.1875 " fill-opacity="1" fill-rule="nonzero"/></g><path fill="#e6e6e6" d="M 190.730469 150.285156 C 190.609375 148.113281 189.261719 146.972656 188.386719 146.878906 C 188.363281 146.878906 188.320312 146.878906 188.292969 146.878906 C 187.460938 146.878906 187.03125 148.019531 186.839844 148.71875 C 185.925781 152.191406 186.910156 155.675781 188.847656 158.960938 C 190.554688 153.71875 190.796875 151.332031 190.730469 150.285156 Z M 190.730469 150.285156 " fill-opacity="1" fill-rule="nonzero"/><path fill="#e6e6e6" d="M 190.40625 168.605469 C 189.492188 170.9375 188.5625 173.136719 187.78125 174.960938 C 189.625 174.304688 190.835938 173.902344 190.945312 173.875 L 190.972656 173.863281 C 191.078125 173.820312 192.585938 173.367188 194.777344 172.816406 C 193.339844 171.515625 191.847656 170.105469 190.40625 168.605469 Z M 190.40625 168.605469 " fill-opacity="1" fill-rule="nonzero"/><path fill="#e6e6e6" d="M 170 189.164062 C 169.539062 189.660156 169.40625 189.96875 169.367188 190.089844 C 169.40625 190.128906 169.472656 190.207031 169.59375 190.316406 C 171.0625 191.523438 172.03125 191.414062 172.636719 191.242188 C 173.550781 190.960938 174.570312 190.15625 175.609375 188.894531 C 176.578125 187.714844 177.546875 186.160156 178.472656 184.28125 C 178.554688 184.105469 178.648438 183.933594 178.730469 183.757812 C 176.160156 184.964844 174.0625 186.105469 172.460938 187.179688 C 171.382812 187.886719 170.5625 188.558594 170 189.164062 Z M 170 189.164062 " fill-opacity="1" fill-rule="nonzero"/><g clip-path="url(#d620bb4884)"><path fill="#e6e6e6" d="M 225.140625 143.554688 C 223.742188 143.554688 222.425781 142.949219 221.507812 141.890625 C 220.566406 140.804688 220.164062 139.371094 220.394531 137.949219 L 222.789062 123.789062 L 144.574219 123.789062 C 140.199219 123.789062 136.648438 127.328125 136.648438 131.6875 L 136.648438 216.386719 L 238.636719 216.386719 L 238.636719 143.207031 L 225.261719 143.539062 C 225.222656 143.554688 225.183594 143.554688 225.140625 143.554688 Z M 215.699219 177.46875 C 215.484375 178.621094 214.863281 179.667969 213.894531 180.484375 C 212.65625 181.53125 210.960938 182.109375 209.144531 182.109375 C 208.902344 182.109375 208.660156 182.09375 208.40625 182.082031 C 206.171875 181.894531 203.980469 180.863281 202.097656 179.117188 C 201.34375 178.421875 200.363281 177.601562 199.230469 176.636719 C 195.613281 177.386719 192.625 178.300781 192.398438 178.367188 C 192.140625 178.449219 188.941406 179.507812 184.972656 181.078125 C 184.488281 182.429688 183.746094 184.320312 182.765625 186.292969 C 181.675781 188.503906 180.503906 190.382812 179.308594 191.84375 C 177.652344 193.882812 175.863281 195.195312 174.019531 195.761719 C 173.414062 195.949219 172.703125 196.082031 171.910156 196.082031 C 170.375 196.082031 168.519531 195.585938 166.554688 193.964844 C 164.457031 192.234375 164.46875 190.261719 164.65625 189.242188 C 164.886719 188.0625 165.546875 186.921875 166.660156 185.757812 C 167.507812 184.882812 168.597656 184.011719 170.011719 183.085938 C 172.21875 181.640625 175.164062 180.109375 178.78125 178.515625 C 179.699219 178.113281 180.613281 177.722656 181.5 177.363281 C 182.1875 175.859375 184.21875 171.328125 186.183594 166.285156 C 186.425781 165.667969 186.652344 165.078125 186.867188 164.515625 C 184.851562 161.847656 183.410156 159.203125 182.589844 156.667969 C 181.566406 153.53125 181.445312 150.445312 182.242188 147.496094 C 182.710938 145.714844 183.546875 144.332031 184.730469 143.394531 C 185.898438 142.453125 187.367188 142.027344 188.859375 142.171875 C 189.71875 142.265625 190.566406 142.535156 191.375 142.992188 C 192.140625 143.421875 192.8125 143.996094 193.40625 144.695312 C 194 145.390625 194.484375 146.210938 194.832031 147.09375 C 195.195312 148.019531 195.410156 149.011719 195.464844 150.042969 C 195.570312 151.949219 195.101562 154.644531 194.023438 158.304688 C 193.554688 159.914062 192.960938 161.699219 192.261719 163.644531 C 194.859375 166.632812 197.914062 169.34375 200.550781 171.59375 C 200.605469 171.582031 200.671875 171.582031 200.726562 171.570312 C 203.765625 171.058594 206.347656 170.859375 208.40625 170.964844 C 209.777344 171.046875 210.921875 171.261719 211.902344 171.609375 C 213.210938 172.089844 214.203125 172.828125 214.863281 173.808594 C 215.644531 174.949219 215.925781 176.207031 215.699219 177.46875 Z M 215.699219 177.46875 " fill-opacity="1" fill-rule="nonzero"/></g><path fill="#e6e6e6" d="M 208.175781 175.671875 C 207.371094 175.632812 206.441406 175.644531 205.40625 175.726562 C 207.882812 177.964844 210.113281 177.480469 210.8125 176.890625 C 210.960938 176.773438 211.015625 176.664062 211.015625 176.636719 C 211.015625 176.625 211.003906 176.542969 210.910156 176.394531 C 210.8125 176.234375 210.101562 175.777344 208.175781 175.671875 Z M 208.175781 175.671875 " fill-opacity="1" fill-rule="nonzero"/><g clip-path="url(#1659a24cb6)"><path fill="#e6e6e6" d="M 238.636719 242.1875 L 238.636719 241.730469 C 238.636719 243.527344 238.136719 245.21875 237.25 246.652344 C 238.125 245.363281 238.636719 243.835938 238.636719 242.1875 Z M 238.636719 242.1875 " fill-opacity="1" fill-rule="nonzero"/></g><g clip-path="url(#f21e78f4fa)"><path fill="#e6e6e6" d="M 234.25 135.332031 L 232.03125 132.785156 L 224.214844 123.789062 L 223.796875 123.789062 L 222.234375 133.027344 L 221.375 138.109375 C 220.972656 140.484375 222.839844 142.617188 225.25 142.5625 L 230.414062 142.429688 L 238.648438 142.226562 L 238.648438 141.140625 Z M 234.25 135.332031 " fill-opacity="1" fill-rule="nonzero"/></g><g clip-path="url(#26bb523a8e)"><path fill="#f80707" d="M 230.710938 250.085938 L 144.574219 250.085938 C 141.855469 250.085938 139.460938 248.71875 138.035156 246.640625 C 139.6875 249.359375 142.703125 251.183594 146.144531 251.183594 L 229.152344 251.183594 C 232.582031 251.183594 235.59375 249.359375 237.261719 246.640625 C 235.835938 248.71875 233.429688 250.085938 230.710938 250.085938 Z M 230.710938 250.085938 " fill-opacity="1" fill-rule="nonzero"/></g><path fill="#f80707" d="M 195.074219 233.484375 C 195.101562 228.816406 192.382812 226.09375 187.5 226.09375 C 186.261719 226.09375 185.414062 226.1875 184.835938 226.308594 L 184.835938 241.554688 C 185.375 241.652344 186.195312 241.652344 186.988281 241.652344 C 192.074219 241.691406 195.074219 238.886719 195.074219 233.484375 Z M 195.074219 233.484375 " fill-opacity="1" fill-rule="nonzero"/><g clip-path="url(#3681713e43)"><path fill="#f80707" d="M 136.648438 241.71875 C 136.648438 243.515625 137.144531 245.203125 138.035156 246.640625 C 139.460938 248.71875 141.855469 250.085938 144.574219 250.085938 L 230.726562 250.085938 C 233.441406 250.085938 235.835938 248.71875 237.261719 246.640625 C 238.136719 245.203125 238.648438 243.527344 238.648438 241.71875 L 238.648438 216.371094 L 136.648438 216.371094 Z M 202.582031 223.226562 L 214.945312 223.226562 L 214.945312 226.417969 L 206.484375 226.417969 L 206.484375 232.289062 L 214.339844 232.289062 L 214.339844 235.441406 L 206.484375 235.441406 L 206.484375 244.507812 L 202.582031 244.507812 Z M 180.949219 223.507812 C 182.683594 223.25 184.851562 223.0625 187.152344 223.0625 C 191.144531 223.0625 193.863281 223.882812 195.828125 225.53125 C 197.914062 227.207031 199.191406 229.753906 199.191406 233.363281 C 199.191406 237.183594 197.886719 239.988281 195.867188 241.824219 C 193.742188 243.753906 190.351562 244.734375 186.210938 244.734375 C 183.960938 244.734375 182.253906 244.613281 180.949219 244.453125 Z M 163.246094 223.507812 C 164.671875 223.25 166.609375 223.0625 169.203125 223.0625 C 172.054688 223.0625 174.113281 223.667969 175.472656 224.792969 C 176.738281 225.839844 177.558594 227.503906 177.558594 229.5 C 177.558594 231.527344 176.925781 233.160156 175.757812 234.300781 C 174.167969 235.84375 171.761719 236.609375 169.015625 236.609375 C 168.289062 236.609375 167.65625 236.582031 167.121094 236.445312 L 167.121094 244.492188 L 163.257812 244.492188 L 163.257812 223.507812 Z M 163.246094 223.507812 " fill-opacity="1" fill-rule="nonzero"/></g><path fill="#f80707" d="M 173.699219 229.660156 C 173.699219 227.289062 172.054688 226.066406 169.351562 226.066406 C 168.277344 226.066406 167.507812 226.160156 167.105469 226.253906 L 167.105469 233.390625 C 167.617188 233.550781 168.210938 233.578125 169.003906 233.578125 C 171.921875 233.578125 173.699219 232.128906 173.699219 229.660156 Z M 173.699219 229.660156 " fill-opacity="1" fill-rule="nonzero"/><path fill="#ffffff" d="M 167.121094 236.445312 C 167.65625 236.566406 168.289062 236.609375 169.015625 236.609375 C 171.773438 236.609375 174.183594 235.84375 175.757812 234.300781 C 176.925781 233.160156 177.558594 231.527344 177.558594 229.5 C 177.558594 227.515625 176.738281 225.839844 175.472656 224.792969 C 174.113281 223.652344 172.054688 223.0625 169.203125 223.0625 C 166.609375 223.0625 164.671875 223.25 163.246094 223.507812 L 163.246094 244.507812 L 167.105469 244.507812 L 167.105469 236.445312 Z M 167.121094 226.253906 C 167.535156 226.160156 168.289062 226.066406 169.367188 226.066406 C 172.054688 226.066406 173.710938 227.300781 173.710938 229.660156 C 173.710938 232.128906 171.933594 233.578125 169.03125 233.578125 C 168.234375 233.578125 167.628906 233.550781 167.132812 233.390625 L 167.132812 226.253906 Z M 167.121094 226.253906 " fill-opacity="1" fill-rule="nonzero"/><path fill="#ffffff" d="M 195.867188 241.824219 C 197.898438 239.988281 199.191406 237.183594 199.191406 233.363281 C 199.191406 229.769531 197.925781 227.207031 195.828125 225.53125 C 193.863281 223.894531 191.144531 223.0625 187.152344 223.0625 C 184.835938 223.0625 182.683594 223.25 180.949219 223.507812 L 180.949219 244.441406 C 182.253906 244.601562 183.960938 244.722656 186.210938 244.722656 C 190.367188 244.722656 193.757812 243.742188 195.867188 241.824219 Z M 184.851562 226.324219 C 185.414062 226.203125 186.277344 226.109375 187.515625 226.109375 C 192.398438 226.109375 195.113281 228.816406 195.089844 233.496094 C 195.089844 238.902344 192.074219 241.703125 187.015625 241.675781 C 186.222656 241.675781 185.402344 241.675781 184.863281 241.582031 L 184.863281 226.324219 Z M 184.851562 226.324219 " fill-opacity="1" fill-rule="nonzero"/><path fill="#ffffff" d="M 206.484375 235.441406 L 214.339844 235.441406 L 214.339844 232.289062 L 206.484375 232.289062 L 206.484375 226.417969 L 214.945312 226.417969 L 214.945312 223.226562 L 202.582031 223.226562 L 202.582031 244.507812 L 206.484375 244.507812 Z M 206.484375 235.441406 " fill-opacity="1" fill-rule="nonzero"/><path fill="#fe0606" d="M 211.929688 171.582031 C 210.949219 171.21875 209.804688 171.019531 208.433594 170.9375 C 206.375 170.816406 203.777344 171.019531 200.75 171.542969 C 200.699219 171.554688 200.628906 171.554688 200.578125 171.570312 C 197.941406 169.328125 194.871094 166.605469 192.289062 163.617188 C 192.988281 161.65625 193.582031 159.875 194.050781 158.277344 C 195.128906 154.632812 195.597656 151.921875 195.492188 150.019531 C 195.4375 148.984375 195.222656 147.992188 194.859375 147.066406 C 194.507812 146.183594 194.039062 145.378906 193.433594 144.667969 C 192.839844 143.96875 192.15625 143.394531 191.402344 142.964844 C 190.609375 142.507812 189.761719 142.238281 188.886719 142.144531 C 187.394531 142 185.925781 142.429688 184.757812 143.367188 C 183.585938 144.304688 182.738281 145.699219 182.265625 147.46875 C 181.488281 150.421875 181.609375 153.503906 182.617188 156.644531 C 183.4375 159.175781 184.878906 161.820312 186.894531 164.488281 C 186.679688 165.050781 186.453125 165.640625 186.210938 166.257812 C 184.230469 171.300781 182.214844 175.832031 181.527344 177.335938 C 180.640625 177.695312 179.726562 178.085938 178.808594 178.488281 C 175.191406 180.082031 172.246094 181.625 170.039062 183.0625 C 168.625 183.984375 167.535156 184.859375 166.6875 185.730469 C 165.558594 186.894531 164.898438 188.035156 164.683594 189.214844 C 164.496094 190.234375 164.484375 192.207031 166.582031 193.9375 C 168.546875 195.558594 170.402344 196.054688 171.933594 196.054688 C 172.730469 196.054688 173.441406 195.921875 174.046875 195.734375 C 175.902344 195.171875 177.679688 193.855469 179.335938 191.816406 C 180.53125 190.355469 181.6875 188.480469 182.792969 186.265625 C 183.761719 184.292969 184.515625 182.390625 185 181.050781 C 188.96875 179.480469 192.167969 178.421875 192.425781 178.339844 C 192.652344 178.273438 195.640625 177.363281 199.257812 176.609375 C 200.386719 177.5625 201.371094 178.394531 202.125 179.089844 C 204.019531 180.835938 206.199219 181.855469 208.433594 182.054688 C 208.675781 182.082031 208.929688 182.082031 209.171875 182.082031 C 210.976562 182.082031 212.683594 181.503906 213.921875 180.460938 C 214.890625 179.640625 215.507812 178.59375 215.726562 177.441406 C 215.953125 176.179688 215.671875 174.90625 214.917969 173.769531 C 214.230469 172.800781 213.25 172.066406 211.929688 171.582031 Z M 178.472656 184.269531 C 177.546875 186.144531 176.578125 187.699219 175.609375 188.882812 C 174.570312 190.140625 173.550781 190.945312 172.636719 191.226562 C 172.03125 191.414062 171.0625 191.507812 169.59375 190.300781 C 169.460938 190.195312 169.394531 190.113281 169.367188 190.074219 C 169.40625 189.953125 169.539062 189.644531 170 189.148438 C 170.5625 188.546875 171.382812 187.875 172.460938 187.152344 C 174.0625 186.078125 176.160156 184.9375 178.730469 183.730469 C 178.648438 183.933594 178.566406 184.105469 178.472656 184.269531 Z M 186.855469 148.703125 C 187.042969 148.007812 187.472656 146.867188 188.308594 146.867188 C 188.335938 146.867188 188.375 146.867188 188.402344 146.867188 C 189.277344 146.960938 190.621094 148.101562 190.742188 150.273438 C 190.796875 151.320312 190.566406 153.71875 188.871094 158.949219 C 186.921875 155.664062 185.925781 152.175781 186.855469 148.703125 Z M 190.972656 173.863281 L 190.945312 173.875 C 190.835938 173.914062 189.625 174.304688 187.78125 174.960938 C 188.5625 173.136719 189.492188 170.9375 190.40625 168.605469 C 191.847656 170.105469 193.339844 171.515625 194.777344 172.816406 C 192.585938 173.367188 191.078125 173.820312 190.972656 173.863281 Z M 211.03125 176.625 C 211.03125 176.652344 210.976562 176.746094 210.828125 176.878906 C 210.128906 177.46875 207.894531 177.953125 205.417969 175.710938 C 206.457031 175.632812 207.382812 175.617188 208.191406 175.660156 C 210.113281 175.765625 210.8125 176.222656 210.921875 176.382812 C 211.015625 176.542969 211.03125 176.625 211.03125 176.625 Z M 211.03125 176.625 " fill-opacity="1" fill-rule="nonzero"/></svg>